<svg xmlns="http://www.w3.org/2000/svg" viewBox="0 0 14.37 14.82"><defs><style>.cls-1{fill:none;}.cls-2{fill:#48698c;}.cls-3{fill:#f4824c;}.cls-4{fill:#555;}.cls-5{fill:#30394e;}</style></defs><title>Asset 2</title><g id="Layer_2" data-name="Layer 2"><g id="Custom_Resolver_Setting" data-name="Custom Resolver Setting"><path class="cls-1" d="M9.08,8.94a5.21,5.21,0,0,1,.49-.55,9.62,9.62,0,0,1,.75-.67A3.66,3.66,0,0,0,10,7.25c-.91-.91-1.25-.64-1.32-.65C8,6.47,6.54,6.34,6.54,6.34a.92.92,0,0,1,0-1.18.83.83,0,0,1,.62-.31l-.11.84.47-.37.07-.57.19,0c.36.08.64-.64.83-.94a1.39,1.39,0,0,1,.47-.41c.3-.18.62-.32,1-.49-.09-.08,0-.42,0-.45A3.18,3.18,0,0,0,8.8,2l-1.36.59L8.16.91A5.24,5.24,0,0,0,4,2.59c-.25.19-1.23.93-1,1.16s.73.23.79.53c.16.82.07,1.08.33,1.22l.25,1s.09-.85.11-.84c.57.38,1,1.6,2.32,2a4.12,4.12,0,0,0-.11.84c0,.31.35.48.67.63l.18-.2Z"/><path class="cls-2" d="M7.69,12.06l-1-.54-1.4-.1,2.07-2.3C7.05,9,6.71,8.81,6.7,8.5a4.12,4.12,0,0,1,.11-.84c-1.37-.4-1.75-1.62-2.32-2,0,0-.11.84-.11.84l-.25-1C3.87,5.36,4,5.1,3.8,4.28,3.74,4,3.23,4,3,3.75s.75-1,1-1.16A5.24,5.24,0,0,1,8.16.91L7.44,2.59,8.8,2A3.18,3.18,0,0,1,10,2.49s-.07.36,0,.45c-.34.17-.66.32-1,.49a1.39,1.39,0,0,0-.47.41c-.18.3-.47,1-.83.94l-.19,0-.07.57-.47.37.11-.84a.83.83,0,0,0-.62.31.92.92,0,0,0,0,1.18S8,6.47,8.65,6.6c.07,0,.42-.25,1.32.65a3.66,3.66,0,0,1,.35.46,10.39,10.39,0,0,1,4-1.95A7.25,7.25,0,1,0,6.7,14.48C6.48,13.74,6.21,12.22,7.69,12.06Z"/><path class="cls-3" d="M9.23,12.89l-.38,0a2.23,2.23,0,0,1-.06-.46H8.56a.62.62,0,0,0-.44.23,2.24,2.24,0,0,0-.37,1.21c1.35.08,1.47-.75,1.47-.75A.91.91,0,0,0,9.23,12.89Z"/><path class="cls-4" d="M10.41,14.82,12,13.31v-.1l0-.78a3.75,3.75,0,0,1-2,.68l.53.55,0,.54Z"/><path class="cls-4" d="M8.32,9.51l-.8.76L6.72,11H7.9l.57.6.08-.14a3.83,3.83,0,0,1,.78-1.9Z"/><path class="cls-5" d="M14.36,7.23a7.24,7.24,0,0,0-3.52,1.32,6.05,6.05,0,0,0-.65.55,4.43,4.43,0,0,0-.41.48A3.83,3.83,0,0,0,9,11.48c0,.13,0,.25,0,.36s0,.15,0,.22a2.86,2.86,0,0,0,.08.57l.45,0h.43a3.75,3.75,0,0,0,2-.68A4.77,4.77,0,0,0,13,10.85,5.73,5.73,0,0,0,14.36,7.23Zm-2.12,3.29A1,1,0,1,1,13,9.39,1,1,0,0,1,12.24,10.52Z"/></g></g></svg>